<svg width="1800" height="1100" viewBox="0 0 1800 1100" fill="none" xmlns="http://www.w3.org/2000/svg">
  <rect width="1800" height="1100" rx="32" fill="#F7F3EC"/>
  <rect x="120" y="120" width="1560" height="860" rx="24" fill="#FFF8EE" stroke="#E8C9B8" stroke-width="4"/>
  <rect x="180" y="220" width="1440" height="90" rx="18" fill="#2E2A26" fill-opacity="0.08"/>
  <rect x="180" y="350" width="1440" height="430" rx="18" fill="#FFF3E5" stroke="#E8C9B8" stroke-width="4"/>
  <rect x="220" y="390" width="260" height="60" rx="16" fill="#B5532E" fill-opacity="0.16"/>
  <rect x="220" y="485" width="240" height="40" rx="20" fill="#2E2A26" fill-opacity="0.12"/>
  <rect x="220" y="548" width="300" height="40" rx="20" fill="#2E2A26" fill-opacity="0.10"/>
  <rect x="560" y="390" width="220" height="60" rx="16" fill="#B5532E" fill-opacity="0.16"/>
  <rect x="560" y="485" width="240" height="40" rx="20" fill="#2E2A26" fill-opacity="0.12"/>
  <rect x="560" y="548" width="280" height="40" rx="20" fill="#2E2A26" fill-opacity="0.10"/>
  <rect x="900" y="390" width="220" height="60" rx="16" fill="#B5532E" fill-opacity="0.16"/>
  <rect x="900" y="485" width="240" height="40" rx="20" fill="#2E2A26" fill-opacity="0.12"/>
  <rect x="900" y="548" width="280" height="40" rx="20" fill="#2E2A26" fill-opacity="0.10"/>
  <rect x="1250" y="390" width="220" height="60" rx="16" fill="#B5532E" fill-opacity="0.16"/>
  <rect x="1250" y="485" width="240" height="40" rx="20" fill="#2E2A26" fill-opacity="0.12"/>
  <rect x="1250" y="548" width="280" height="40" rx="20" fill="#2E2A26" fill-opacity="0.10"/>
  <text x="180" y="980" fill="#B5532E" font-family="Arial, sans-serif" font-size="48" font-weight="700">Google Flights date grid preview</text>
</svg>